<?xml version="1.0" encoding="UTF-8"?>
<svg id="Layer_1" data-name="Layer 1" xmlns="http://www.w3.org/2000/svg" viewBox="0 0 406.08 103.78">
  <defs>
    <style>
      .cls-1 {
        fill: #144876;
      }
    </style>
  </defs>
  <path class="cls-1" d="M0,0c7.33.45,10.99.66,18.32,1.07,4.68,20.24,9.42,40.47,14.2,60.69.11,0,.16,0,.27,0V1.84c5.2.27,7.81.4,13.01.64,0,32.94,0,65.87,0,98.81-6,.28-9,.43-15,.74-5.93-24.53-11.77-49.09-17.52-73.66-.11,0-.16,0-.27,0v74.64c-5.2.3-7.8.45-13.01.77V0Z"/>
  <path class="cls-1" d="M63.72,3.28c13.28.53,26.56,1.01,39.85,1.43,0,5.39,0,8.09,0,13.48-10.1-.22-15.14-.34-25.24-.61,0,10.15,0,15.23,0,25.39,8.02.06,12.03.08,20.06.13,0,5.41,0,8.11,0,13.52-8.02.03-12.04.04-20.06.07,0,11.8,0,17.7,0,29.5,10.09-.27,15.14-.39,25.24-.61,0,5.39,0,8.09,0,13.48-13.29.43-26.57.9-39.85,1.43,0-32.4,0-64.81,0-97.21Z"/>
  <path class="cls-1" d="M130.41,18.69c-6.11-.1-9.17-.15-15.28-.26V5.04c15.06.4,30.12.69,45.18.89,0,5.25,0,7.88,0,13.13-6.11-.06-9.17-.09-15.28-.17,0,26.4,0,52.79,0,79.19-5.85.1-8.77.16-14.62.29,0-26.56,0-53.12,0-79.68Z"/>
  <path class="cls-1" d="M174.4,6.08c12.89.08,25.78.12,38.67.11v13.06c-9.62.02-14.43.02-24.05-.01v25.47c7.55,0,11.32,0,18.87,0v13.05c-7.55,0-11.32,0-18.87,0v39.84c-5.85.02-8.77.04-14.62.09V6.08Z"/>
  <path class="cls-1" d="M227.16,6.12c5.85-.04,8.77-.07,14.62-.14v78.71c9.62.08,14.43.13,24.05.26v13.22c-12.89-.22-25.78-.39-38.67-.51,0-30.52,0-61.03,0-91.55Z"/>
  <path class="cls-1" d="M284.03,93.76c-3.81-4.17-5.71-9.96-5.71-17.41V27.42c0-7.45,1.9-13.23,5.71-17.41,3.81-4.17,9.3-6.37,16.48-6.59,7.17-.22,12.66,1.67,16.47,5.72,3.81,4.06,5.71,9.93,5.71,17.59v50.3c0,7.65-1.91,13.53-5.71,17.59-3.81,4.06-9.3,5.94-16.47,5.72-7.17-.22-12.67-2.42-16.48-6.59ZM308.08,77.73V26.05c0-6.22-2.52-9.27-7.57-9.16s-7.57,3.24-7.57,9.4c0,17.06,0,34.13,0,51.19,0,6.16,2.53,9.29,7.57,9.4,5.05.11,7.57-2.94,7.57-9.16Z"/>
  <path class="cls-1" d="M336.11,3.54c5.63-.23,8.45-.34,14.08-.59,2.18,25.13,4.35,50.26,6.51,75.39.11,0,.16,0,.27,0,2.31-25.34,4.62-50.69,6.9-76.03,6.37-.31,9.56-.47,15.93-.81,2.31,25.88,4.62,51.77,6.9,77.65.11,0,.16,0,.27,0,2.18-26.14,4.35-52.28,6.5-78.42,5.04-.29,7.57-.44,12.61-.75-3.11,34.41-6.25,68.81-9.42,103.22-7.27-.42-10.91-.63-18.18-1.01-2.2-22.58-4.41-45.16-6.64-67.74-.11,0-.16,0-.27,0-2.2,22.35-4.41,44.7-6.64,67.04-7.75-.38-11.63-.56-19.39-.89-3.12-32.37-6.26-64.73-9.43-97.09Z"/>
</svg>